<svg xmlns="http://www.w3.org/2000/svg" viewBox="0 0 64 64">
  <!-- Book -->
  <path d="M8 46 C14 42 24 40 32 40 L32 56 C24 56 14 58 8 62 Z" fill="#8B1A2F"/>
  <path d="M56 46 C50 42 40 40 32 40 L32 56 C40 56 50 58 56 62 Z" fill="#8B1A2F"/>
  <rect x="30" y="38" width="4" height="20" rx="1" fill="#5a1020"/>
  <!-- Flame -->
  <path d="M32 38 C28 30 26 20 30 10 C31 6 33 8 33 14 C36 8 37 4 34 0 C42 8 40 22 36 30 C38 24 40 16 38 10 C44 18 42 32 36 38 Z" fill="#C9A84C"/>
  <path d="M32 38 C30 32 29 26 31 20 C32 16 33 20 34 26 C35 32 33 36 32 38 Z" fill="#f0d880"/>
</svg>
